# xmcd CD database file
#
# Track frame offsets:
#	150
#	20942
#	37994
#	47061
#	71124
#	139986
#	165066
#	185649
#	196309
#	216431
#	231280
#	244018
#
# Disc length: 3746 seconds
#
# Revision: 0
# Processed by: cddbd v1.5.1PL0 Copyright (c) Steve Scherf et al.
# Submitted via: CDex 1.51
#
DISCID=b00ea00c
DTITLE=Duke Ellington - Duke Ellington's "Sacred Concert"
DYEAR=2001
DGENRE=Jazz
TTITLE0=Isfahan/Duke Ellington fra "Far East Suite"
TTITLE1=My Love/Duke Ellington "Sacred Concert No 3"
TTITLE2=Praise God - intro.
TTITLE3=Heaven
TTITLE4=Freedon - suite
TTITLE5=The Shepherd
TTITLE6=The Majesty of God
TTITLE7=Come Sunday
TTITLE8=David Danced  Before The Lord
TTITLE9=Almighty God
TTITLE10=T.G.T.T
TTITLE11=Praise God and Dance - finale
EXTD=YEAR: 2001
EXTT0=
EXTT1=
EXTT2=
EXTT3=
EXTT4=
EXTT5=
EXTT6=
EXTT7=
EXTT8=
EXTT9=
EXTT10=
EXTT11=
PLAYORDER=
